<svg width="25" height="25" viewBox="0 0 25 25" fill="none" xmlns="http://www.w3.org/2000/svg">
<path d="M12.5 21.875C17.6777 21.875 21.875 17.6777 21.875 12.5C21.875 7.32233 17.6777 3.125 12.5 3.125C7.32233 3.125 3.125 7.32233 3.125 12.5C3.125 17.6777 7.32233 21.875 12.5 21.875Z" stroke="#9D9B98" stroke-width="2" stroke-miterlimit="10"/>
<path d="M3.65887 9.375H21.341" stroke="#9D9B98" stroke-width="2" stroke-linecap="round" stroke-linejoin="round"/>
<path d="M3.65924 15.625H21.3413" stroke="#9D9B98" stroke-width="2" stroke-linecap="round" stroke-linejoin="round"/>
<path d="M12.5 21.6234C14.6574 21.6234 16.4062 17.5387 16.4062 12.5C16.4062 7.46136 14.6574 3.37671 12.5 3.37671C10.3426 3.37671 8.59375 7.46136 8.59375 12.5C8.59375 17.5387 10.3426 21.6234 12.5 21.6234Z" stroke="#9D9B98" stroke-width="2" stroke-miterlimit="10"/>
</svg>
