<svg xmlns="http://www.w3.org/2000/svg" width="34.652" height="33.977" viewBox="0 0 34.652 33.977">
  <path id="imo" d="M7.87,15.011h1.1a.428.428,0,0,1,.413.47v5.1s.025.549-.439.549H7.818s-.335-.02-.335-.472V15.4a.384.384,0,0,1,.386-.393Zm.552-1.269a.958.958,0,1,1,.012-1.915.96.96,0,1,1-.013,1.915Zm11.8,7.39H19.195c-.487,0-.389-.7-.389-.7V17.8c0-.889-.288-1.4-.9-1.4a.931.931,0,0,0-.876.664,1.6,1.6,0,0,0-.075.488v2.979s.006.6-.527.6h-.845s-.48-.037-.48-.652V17.7c0-.776-.275-1.3-.876-1.3a.968.968,0,0,0-.888.688,1.26,1.26,0,0,0-.075.476V20.48s.066.652-.423.652h-.82c-.609,0-.609-.652-.609-.652V16.964c0-.6-.034-1.584-.034-1.584a.357.357,0,0,1,.386-.369h.794a.454.454,0,0,1,.443.367l.049.459h.037a2.122,2.122,0,0,1,1.852-.964,1.734,1.734,0,0,1,1.677,1.039h.025a2.74,2.74,0,0,1,.788-.738,2.208,2.208,0,0,1,1.164-.3c1.176,0,2.064.826,2.064,2.654v2.953c0,.608-.438.652-.438.652Zm5.317-4.907c-.913,0-1.251.939-1.251,1.84,0,1.051.438,1.84,1.251,1.84.738,0,1.213-.739,1.213-1.84C26.75,17.151,26.4,16.225,25.537,16.225Zm-.05,5.044a3,3,0,0,1-3.165-3.154,3.055,3.055,0,0,1,3.265-3.242A2.976,2.976,0,0,1,28.715,18a3.07,3.07,0,0,1-3.228,3.267ZM17.673,2.486A14.611,14.611,0,0,0,5.193,24.674,3.816,3.816,0,0,1,3.7,29c1.536.518,4.783-.434,4.949-.434A14.6,14.6,0,1,0,17.673,2.486Zm0,31.491A16.9,16.9,0,0,1,8.1,31.02,12.412,12.412,0,0,1,2.66,31.7C.826,31.481-1.1,29.961.755,28.483c2.869-2.288,2.1-3.195,2.1-3.195a16.981,16.981,0,1,1,14.82,8.689Z" transform="translate(-0.001)" fill="#e3c086"/>
</svg>
