<?xml version="1.0" encoding="utf-8"?>
<!-- Generator: Adobe Illustrator 26.2.1, SVG Export Plug-In . SVG Version: 6.00 Build 0)  -->
<!DOCTYPE svg PUBLIC "-//W3C//DTD SVG 1.1//EN" "http://www.w3.org/Graphics/SVG/1.1/DTD/svg11.dtd" [
	<!ENTITY ns_extend "http://ns.adobe.com/Extensibility/1.0/">
	<!ENTITY ns_ai "http://ns.adobe.com/AdobeIllustrator/10.0/">
	<!ENTITY ns_graphs "http://ns.adobe.com/Graphs/1.0/">
	<!ENTITY ns_vars "http://ns.adobe.com/Variables/1.0/">
	<!ENTITY ns_imrep "http://ns.adobe.com/ImageReplacement/1.0/">
	<!ENTITY ns_sfw "http://ns.adobe.com/SaveForWeb/1.0/">
	<!ENTITY ns_custom "http://ns.adobe.com/GenericCustomNamespace/1.0/">
	<!ENTITY ns_adobe_xpath "http://ns.adobe.com/XPath/1.0/">
]>
<svg version="1.1" id="Layer_1" xmlns:x="&ns_extend;" xmlns:i="&ns_ai;" xmlns:graph="&ns_graphs;"
	 xmlns="http://www.w3.org/2000/svg" xmlns:xlink="http://www.w3.org/1999/xlink" x="0px" y="0px" viewBox="0 0 34.7 34.6"
	 style="enable-background:new 0 0 34.7 34.6;" xml:space="preserve">
<style type="text/css">
	.st0{fill:#E3C086;}
</style>
<metadata>
	<sfw  xmlns="&ns_sfw;">
		<slices></slices>
		<sliceSourceBounds  bottomLeftOrigin="true" height="34.6" width="34.6" x="0" y="0"></sliceSourceBounds>
	</sfw>
</metadata>
<g>
	<polygon class="st0" points="17.3,0 17.3,0 17.3,0 	"/>
	<path class="st0" d="M34.5,10.2c0-1.4-0.3-2.9-0.8-4.2c-0.4-1.2-1.1-2.2-2-3.1c-0.9-0.9-1.9-1.6-3.1-2c-1.3-0.5-2.8-0.8-4.2-0.8
		C22.6,0,22,0,17.3,0S12,0,10.2,0.1C8.7,0.1,7.3,0.4,6,0.9C4.8,1.3,3.8,2,2.9,2.9C2,3.8,1.4,4.8,0.9,6c-0.5,1.3-0.8,2.8-0.8,4.2
		C0,12,0,12.6,0,17.3c0,4.7,0,5.3,0.1,7.1c0,1.4,0.3,2.9,0.8,4.2c0.4,1.2,1.1,2.2,2,3.1c0.9,0.9,1.9,1.6,3.1,2
		c1.3,0.5,2.8,0.8,4.2,0.8c1.8,0.1,2.4,0.1,7.1,0.1s5.3,0,7.1-0.1c1.4,0,2.9-0.3,4.2-0.8c2.3-0.9,4.2-2.7,5.1-5.1
		c0.5-1.3,0.8-2.8,0.8-4.2c0.1-1.8,0.1-2.4,0.1-7.1C34.6,12.6,34.6,12,34.5,10.2z M31.4,24.3c0,1.1-0.2,2.2-0.6,3.2
		c-0.6,1.5-1.8,2.7-3.3,3.3c-1,0.4-2.1,0.6-3.2,0.6c-1.8,0.1-2.4,0.1-7,0.1c-4.6,0-5.2,0-7-0.1c-1.1,0-2.2-0.2-3.2-0.6
		c-0.8-0.3-1.4-0.7-2-1.3c-0.6-0.6-1-1.2-1.3-2c-0.4-1-0.6-2.1-0.6-3.2c-0.1-1.8-0.1-2.4-0.1-7s0-5.2,0.1-7c0-1.1,0.2-2.2,0.6-3.2
		c0.3-0.8,0.7-1.4,1.3-2c0.6-0.6,1.2-1,2-1.3c1-0.4,2.1-0.6,3.2-0.6c1.6-0.1,2.2-0.1,5.4-0.1l0,0h1.6c4.6,0,5.2,0,7,0.1
		c1.1,0,2.2,0.2,3.2,0.6c0.8,0.3,1.4,0.7,2,1.3c0.6,0.6,1,1.2,1.3,2c0.4,1,0.6,2.1,0.6,3.2c0.1,1.8,0.1,2.4,0.1,7
		C31.5,22,31.5,22.5,31.4,24.3z"/>
	<path class="st0" d="M26.6,6c-1.1,0-2.1,0.9-2.1,2.1c0,1.1,0.9,2.1,2.1,2.1c1.1,0,2.1-0.9,2.1-2.1c0-0.6-0.2-1.1-0.6-1.5
		C27.7,6.2,27.1,6,26.6,6z"/>
	<path class="st0" d="M17.3,8.4C17.3,8.4,17.3,8.4,17.3,8.4L17.3,8.4c-4.9,0-8.9,4-8.9,8.9c0,4.9,4,8.9,8.9,8.9s8.9-4,8.9-8.9
		C26.2,12.4,22.2,8.4,17.3,8.4z M23.1,17.3c0,3.2-2.6,5.8-5.8,5.8c-3.2,0-5.8-2.6-5.8-5.8c0-3.2,2.6-5.8,5.8-5.8
		C20.5,11.5,23.1,14.1,23.1,17.3L23.1,17.3z"/>
</g>
</svg>
