<?xml version="1.0" encoding="UTF-8"?>
<svg id="Layer_1" data-name="Layer 1" xmlns="http://www.w3.org/2000/svg" viewBox="0 0 910.96 918.24">
  <defs>
    <style>
      .cls-1 {
        fill: #e41c24;
      }
    </style>
  </defs>
  <path class="cls-1" d="M896.21,458.52c.28,245.15-196.61,444.36-439.67,444.84-243.78,.48-442.13-199.27-441.79-444.92C15.1,213.26,211.92,15.22,455.6,14.87c243.06-.35,440.32,198.28,440.6,443.65Zm-429.64,235.97c-1.03-29.32,11.93-54.09,22.22-79.45,38.73-95.49,80.22-189.8,121.63-284.14,4.73-10.78,9.39-21.66,10.99-33.57,4.24-31.56-11.04-65.5-33.9-74.69-8.07,3.73-9.48,12.12-12.71,19.07-33.27,71.5-69.76,141.24-111.86,207.94-16.15,25.58-33.2,50.52-54.89,71.79-8.78,8.61-17.75,17.48-31.29,17.7-9.49-7.91-7.67-17.77-6.33-27.56,4.43-32.38,18.84-61.4,30.94-91.11,12.87-31.61,27.49-62.5,40.27-94.14,14.5-35.87,4.59-76.8-22.19-96.82-13.8-10.32-20.32-9.42-30.52,5.14,8.2,14.86,3.49,29.65-2.61,44.66-23.95,58.96-52.4,116.1-70.99,177.23-5.03,16.54-7.74,33.31-5.88,50.57,5.37,49.84,50.07,71.45,91.77,44.31,20.06-13.06,35.5-31,49.93-49.8,8.69-11.33,16.91-23.03,25.34-34.56-.05,7.44-2.5,13.39-5,19.3-18.17,42.91-36.4,85.8-54.51,128.74-3.84,9.11-6.61,18.61-7.3,28.53-2.22,31.9,27.04,59.49,56.88,50.88Z"/>
</svg>