<?xml version="1.0" encoding="UTF-8"?>
<svg id="Layer_1" data-name="Layer 1" xmlns="http://www.w3.org/2000/svg" viewBox="0 0 854.77 239.84">
  <defs>
    <style>
      .cls-1 {
        fill: #e41c24;
      }
    </style>
  </defs>
  <path class="cls-1" d="M709.41,11.18c-13.89-1.13-22.36,9.21-28.1,19.99-8.19,15.46-14.51,31.94-21.85,48.49-5.59,3.58-18.13-1.83-17.58,12.72,3.87,1.17,8.26,.51,12.32,1.53-3.62,7.35-8.62,17.21-13.01,24.67,0,.04-.04,.04-.04,.07-9.21,12.35-15.42,26.53-29.24,34.2,2.96-19.19,11.69-35.7,18.42-53.03,7.16-18.42-1.1-31.03-23.02-33.99,.29,1.97,.29,3.95,.04,5.85,0,0-1.9,6.43-4.24,12.02-.11,.26-.18,.51-.33,.73-2.23,4.64-14.51,30.44-21.78,40.67-.55,.77-.95,1.39-1.21,1.86-.04,.04-.04,.07-.07,.11-6.5,9.61-12.02,20.83-25.03,27.88,6.07-27.08,18.86-48.13,25.36-70.64-3.91-11.51-10.49-18.6-22.04-20.28-11.69,4.28-17.39,15.9-27.26,23.1-4.42-12.13-10.23-21.71-23.46-22.99-13.27,5.01-18.97,18.64-30.18,26.2-5.08-19.95-9.03-23.64-26.9-24.67,1.32,8.7-2.08,16.44-4.93,24.08,.04,.04,.04,.07,.04,.11,.07-.11,.11-.22,.15-.29-.04,.11-.07,.22-.11,.33,7.38,14.69,2.01,29.86-16.74,48.27-2.3-3.91,1.02-7.42,2.01-11.33v-.04c1.13-3.36,5.12-14.33,14.73-36.91l-.04-.04c-1.9,3.98-13.19,27.19-20.46,37.42-.66,.91-1.13,1.64-1.39,2.23,0,.04-.04,.04-.04,.07-5.99,8.84-11.37,18.45-22.51,25.36,4.17-27.23,18.49-48.35,24.59-71.59-5.08-10.85-11.37-18.24-22.07-19.33-12.28,4.79-17.76,15.97-27.81,23.31-3.58-12.68-10.23-21.67-22.99-23.39-13.05,5.66-19.26,17.65-28.94,25.76-7.75-20.17-10.12-22.33-27.04-24.34-.33,9.1-3.65,17.47-6.07,23.9,8.92,23.1-8.44,34.53-17.21,53.17-.62-3.69,.07-6.76,.77-9.39,0-.04,.04-.04,.04-.04,0,0,0-.07,.04-.18,.55-1.79,5.08-16.88,16.23-43.23-1.57,3.18-14.29,28.76-22.33,39.14-.11,.15-.18,.26-.29,.37-.55,.77-1.1,1.53-1.68,2.34,0,.04-.04,.07-.07,.11-5.59,8.04-10.74,17.25-21.67,23.53,4.71-26.02,17.87-45.02,23.17-66.03q-6.1-17.83-20.79-24.01c-8.26,15.28-16.3,30.81-24.96,46.01-8.44,14.8-16.77,29.82-30.11,41.37,2.08-19.33,11.22-35.74,17.8-53.1,6.98-18.42-1.68-31.28-21.96-32.96-2.48,22.07-15.13,40.64-21.23,61.47-6.91,23.46-.11,33.77,24.81,36.65,10.93-4.17,16.04-15.31,25.47-23.97,2.78,15.13,12.06,22.73,25,24.19,13.34,1.46,19.19-12.24,28.87-18.38,5.55,8.08,6.98,18.93,20.32,18.24,12.39-22.88,44.77-70.16,48.46-75.46-2.34,6.8-14.33,37.9-17.61,51.86-3.54,15.31,3.87,22.8,20.9,22.44,12.02-25.69,25.73-50.94,45.28-72.43,.69-.8,1.43-1.61,2.3-2.59-2.05,5.63-11.91,30.51-15.13,45.2-2.81,12.75,.62,20.98,11.4,27.55,10.67,6.5,19.33,3.8,27.96-3.84,3.84-3.44,6.14-9.06,12.21-9.61,4.09,7.97,6.47,17.61,19.11,16.99,13.12-24.37,48.64-74.48,48.68-74.48,0,.11-13.89,34.35-17.72,48.93-4.31,16.41,3.36,24.92,20.5,24.12,4.31-8.44,8.41-17.25,13.19-25.69,4.75-8.44,9.9-16.7,15.39-24.7,5.08-7.38,9.17-15.79,19.59-24.19-7.49,23.28-19.15,41.37-15.28,62.96,6.43,6.36,12.5,12.57,21.6,13.19,14.69,.99,20.25-13.59,31.14-19.7,4.49,9.65,11.37,16.19,21.12,19.26,11.51,3.65,18.09-6.69,26.97-11.33,2.34,22.77,5.96,27.37,24.74,31.24,8.22-32.12,20.32-62.89,32.63-93.26,5.74-.55,9.98-.69,14.14-1.35,3.65-.62,8.73,1.39,10.01-4.93-4.5-6.8-12.61-2.63-19.11-6.58,6.47-16.48,10.23-34.35,24.78-49.22,.22,13.96-7.31,26.35,1.5,39.83,7.71-11.47,15.93-20.9,19.44-34.06-5.88-12.79-15.13-22.36-29.53-23.57Zm-124.07,126.41c1.21-7.2,1.97-11.77,2.7-16.15,.8-2.38,4.09-11.55,12.39-31.32-.84,5.26,4.57,11.69,5.19,12.42,.04,.04,.07,.07,.07,.07-5.59,12.32-10.38,23.53-20.35,34.97Zm55.29-.33c-.77-6.54,3.25-11.88,4.31-18.34,.04-.04,.04-.07,.04-.07,1.43-3.95,4.39-11.73,9.76-24.74,2.3,.69,4.49,1.97,6.43,4.53-1.97,14.95-11.22,26.75-20.54,38.63Z"/>
  <path class="cls-1" d="M445.46,89.61c-.04,.11-.07,.22-.11,.33l-.04-.04c.07-.11,.11-.22,.15-.29Z"/>
  <path class="cls-1" d="M176.24,54.63c-14.29,34.79-29.6,69.18-44.33,103.82-9.25,21.67-19.88,42.83-23.83,66.25-19.11-1.21-28.91-12.97-23.53-29.45,5.3-16.12,12.83-31.46,18.82-47.36,1.97-5.23,7.24-9.83,4.46-16.34-8.37,8.51-16.41,17.5-25.29,25.43-8.7,7.75-19.11,10.93-30.19,5.04-10.74-5.7-14.36-15.75-14.58-27.44-.15-9.94,2.41-19.33,5.96-28.36,7.35-18.64,15.2-37.06,22.8-55.58,4.97-12.24,11.73-24.01,8.08-39.03,17.36-1.39,21.74,10.34,25.14,21.52,3.14,10.2,0,20.32-4.2,30.04-8.88,20.65-17.8,41.26-25.8,62.23-3.29,8.55-7.49,17.91,.04,31.39C116.27,116.28,135.13,60.26,163.27,10.6c16.19,10.82,20.83,24.89,12.97,44.04Z"/>
  <path class="cls-1" d="M817,90.41c-13.59,33.11-25.95,67.42-45.28,98.6-11.66,18.82-27.3,32.34-48.82,38.48-7.09,2.01-13.92,3.25-21.85-1.75,31.06-17.43,48.9-43.16,57.3-75.79-9.98,8.44-18.09,22.29-34.64,10.56-9.57-6.76-14.36-14.8-10.09-26.38,5.01-13.7,10.38-27.26,15.42-40.93,3.07-8.48,7.97-16.48,5.85-26.02,19.55-.66,30.26,12.46,24.45,29.56-4.49,13.23-10.49,25.91-15.53,38.96-2.05,5.34-6.21,10.52-1.83,18.78,22.58-27.63,37.31-58.76,53.79-89.97,13.89,3.33,18.13,13.45,21.23,25.91Z"/>
  <path class="cls-1" d="M632.76,11.34c13.34-1.9,20.65,3.44,23.72,14.98-4.85,16.97-12.51,23.62-22.32,19.59-9.81-4.04-10.39-14.51-1.4-34.56Z"/>
  <path class="cls-1" d="M445.46,89.61c-.04,.11-.07,.22-.11,.33l-.04-.04c.07-.11,.11-.22,.15-.29Z"/>
</svg>