<?xml version="1.0" encoding="utf-8"?>
<!-- Generator: Adobe Illustrator 26.2.1, SVG Export Plug-In . SVG Version: 6.00 Build 0)  -->
<!DOCTYPE svg PUBLIC "-//W3C//DTD SVG 1.1//EN" "http://www.w3.org/Graphics/SVG/1.1/DTD/svg11.dtd" [
	<!ENTITY ns_extend "http://ns.adobe.com/Extensibility/1.0/">
	<!ENTITY ns_ai "http://ns.adobe.com/AdobeIllustrator/10.0/">
	<!ENTITY ns_graphs "http://ns.adobe.com/Graphs/1.0/">
	<!ENTITY ns_vars "http://ns.adobe.com/Variables/1.0/">
	<!ENTITY ns_imrep "http://ns.adobe.com/ImageReplacement/1.0/">
	<!ENTITY ns_sfw "http://ns.adobe.com/SaveForWeb/1.0/">
	<!ENTITY ns_custom "http://ns.adobe.com/GenericCustomNamespace/1.0/">
	<!ENTITY ns_adobe_xpath "http://ns.adobe.com/XPath/1.0/">
]>
<svg version="1.1" id="Layer_1" xmlns:x="&ns_extend;" xmlns:i="&ns_ai;" xmlns:graph="&ns_graphs;"
	 xmlns="http://www.w3.org/2000/svg" xmlns:xlink="http://www.w3.org/1999/xlink" x="0px" y="0px" viewBox="0 0 122.8 78.8"
	 style="enable-background:new 0 0 122.8 78.8;" xml:space="preserve">
<style type="text/css">
	.st0{fill:#2E3453;}
</style>
<metadata>
	<sfw  xmlns="&ns_sfw;">
		<slices></slices>
		<sliceSourceBounds  bottomLeftOrigin="true" height="78.8" width="122.8" x="478.2" y="-677.9"></sliceSourceBounds>
	</sfw>
</metadata>
<path class="st0" d="M91.7,14.2c2.4,21.6,4.7,42.9,7,64.4c-1.7,0-2.8,0-4.3,0c-2.3-11.5-3.5-23.3-6-34.8c-0.4,0-0.8-0.1-1.1-0.1
	c-0.3,1.2-0.8,2.3-1,3.5c-1.8,9.5-3.6,18.9-5.4,28.4c-0.6,3.1-0.6,3.1-4.1,3c1.5-11.4,3-22.8,4.6-34.6c-1.9-0.1-3.4-0.1-4.9-0.2
	c-3-0.3-4.7-2-4.7-4.5c0.1-2.5,1.9-4.2,4.8-4.3c3.3-0.1,6.7,0,10.5,0c-0.4-3-0.7-5.6-1.1-8.2c-0.5-3.2-1.2-6.4-1.6-9.6
	c-0.3-2.4-1.2-3.2-3.7-3.2C71.9,14.1,63.1,14,54.3,14c-4.3,0-8.7,0-13,0c-1.4,0-2.3,0.3-2.6,1.9c-1,6.2-2,12.3-3.1,19.1
	c2.2,0,3.9,0,5.7,0c1.8,0,3.6-0.1,5.4,0c2.7,0.2,4.4,2.1,4.3,4.4c0,2.3-1.8,4.1-4.4,4.4c-0.8,0.1-1.7,0-2.5,0
	c-0.7,0-1.4,0.1-2.6,0.2c1.5,11.5,3,22.8,4.5,34c-3,1.1-3.4,1-3.9-1.9c-1.8-9.2-3.5-18.5-5.3-27.7c-0.3-1.6-0.8-3.1-1.1-4.7
	c-0.4,0-0.7,0-1.1,0c-0.3,1-0.7,2-0.9,3.1c-1.4,8.7-2.8,17.4-4.2,26c-0.1,0.8-0.2,1.7-0.4,2.5c-0.6,3.5-0.7,3.5-5,3.1
	c2.3-21.4,4.7-42.7,7-64.5c-3.6,0-6.8,0.1-10,0c-3.3-0.1-5.4-2.6-5.2-5.7c0.2-2.2,1.7-4.1,4-4.6c1.3-0.3,2.6-0.3,3.9-0.3
	c25.3,0,50.6,0.1,75.9,0.1c0.8,0,1.7,0,2.5,0.1c2.7,0.4,4.6,2.6,4.6,5.2c0,2.7-1.9,4.9-4.6,5.1c-2.9,0.2-5.8,0.1-8.7,0.1
	C93.1,14,92.7,14.1,91.7,14.2z"/>
<path class="st0" d="M7.1,78.4c1.5-11.4,3-22.7,4.5-34.2c-3.9-1-4.8-4-5.4-7.3C4.3,26.6,2.3,16.5,0.3,6.4C0.1,5.4-0.1,4.4,0,3.5
	c0.2-1.9,1.4-3.1,3.2-3.4c1.9-0.4,3.3,0.4,4.2,2.1c0.4,0.7,0.5,1.6,0.7,2.4c2.1,9.1,4.3,18.3,6.3,27.4c0.5,2.2,1.3,3,3.6,2.9
	c2.9-0.2,5.7,0,9.1,0c-0.3,3-0.6,5.7-0.9,8.7c-2.9,0-5.6,0-8.7,0c-1,4.9-2,9.6-2.9,14.3C13.3,64,12.1,70.1,11,76.3
	C10.7,78.3,9.8,79.4,7.1,78.4z"/>
<path class="st0" d="M115.8,78.4c-3.1,1.2-3.7-0.4-4-2.4c-1.6-8.9-3.3-17.8-5-26.6c-0.3-1.8-0.7-3.5-1.1-5.5c-2.9,0-5.6,0-8.8,0
	c-0.3-2.9-0.6-5.6-1-8.9c3,0,5.6,0,8.2,0c3.7,0,3.7,0,4.5-3.5c1.9-8.3,3.8-16.7,5.7-25c0.2-0.9,0.4-1.9,0.7-2.8
	c0.8-2.7,2.7-4.1,4.9-3.5c2.3,0.6,3.4,2.6,2.8,5.4c-0.7,3.9-1.5,7.8-2.3,11.7c-1.3,6.5-2.6,13-3.8,19.5c-1,5-0.9,5-5.3,7.7
	C112.7,55.7,114.2,67,115.8,78.4z"/>
</svg>
