<svg width="26" height="26" viewBox="0 0 26 26" fill="none" xmlns="http://www.w3.org/2000/svg">
<path fill-rule="evenodd" clip-rule="evenodd" d="M24 13C24 19.0751 19.0751 24 13 24C6.92487 24 2 19.0751 2 13C2 6.92487 6.92487 2 13 2C19.0751 2 24 6.92487 24 13ZM26 13C26 20.1797 20.1797 26 13 26C5.8203 26 0 20.1797 0 13C0 5.8203 5.8203 0 13 0C20.1797 0 26 5.8203 26 13ZM13.8715 5.86595C13.8749 5.5874 13.6501 5.35973 13.3715 5.35973H12.3005C12.0217 5.35973 11.7968 5.58769 11.8006 5.86643L11.9375 16.092C11.9412 16.3655 12.164 16.5853 12.4375 16.5853H13.2443C13.518 16.5853 13.7408 16.3652 13.7442 16.0915L13.8715 5.86595ZM12.0194 19.1849C11.826 19.4069 11.7293 19.6791 11.7293 20.0013C11.7293 20.3093 11.826 20.5742 12.0194 20.7963C12.2199 21.0183 12.5135 21.1293 12.9002 21.1293C13.2798 21.1293 13.5698 21.0183 13.7703 20.7963C13.978 20.5742 14.0819 20.3093 14.0819 20.0013C14.0819 19.6791 13.978 19.4069 13.7703 19.1849C13.5698 18.9629 13.2798 18.8519 12.9002 18.8519C12.5135 18.8519 12.2199 18.9629 12.0194 19.1849Z" fill="white"/>
</svg>
